{
  "accessors": [
    {
      "bufferView": 0,
      "componentType": 5126,
      "count": 33467,
      "max": [
        101.08027648925781,
        241.29718017578125,
        42.60726547241211
      ],
      "min": [
        -102.11622619628906,
        12.94359016418457,
        -42.60567855834961
      ],
      "name": "positions",
      "type": "VEC3"
    },
    {
      "bufferView": 1,
      "componentType": 5125,
      "count": 193500,
      "name": "pos_index",
      "type": "SCALAR"
    },
    {
      "bufferView": 2,
      "componentType": 5126,
      "count": 33467,
      "name": "normals",
      "type": "VEC3"
    },
    {
      "bufferView": 3,
      "componentType": 5126,
      "count": 33467,
      "name": "uvs",
      "type": "VEC2"
    }
  ],
  "asset": {
    "version": "2.0"
  },
  "bufferViews": [
    {
      "buffer": 0,
      "byteLength": 401604,
      "name": "positions",
      "target": 34962
    },
    {
      "buffer": 1,
      "byteLength": 774000,
      "name": "pos_index",
      "target": 34963
    },
    {
      "buffer": 2,
      "byteLength": 401604,
      "name": "normals",
      "target": 34962
    },
    {
      "buffer": 3,
      "byteLength": 267736,
      "name": "uvs",
      "target": 34962
    }
  ],
  "buffers": [
    {
      "byteLength": 401604,
      "name": "positions",
      "uri": "data:application/octet-stream;base64,"
    },
    {
      "byteLength": 774000,
      "name": "pos_index",
      "uri": "data:application/octet-stream;base64,"
    },
    {
      "byteLength": 401604,
      "name": "normals",
      "uri": "data:application/octet-stream;base64,"
    },
    {
      "byteLength": 267736,
      "name": "uvs",
      "uri": "data:application/octet-stream;base64,"
    }
  ],
  "extensionsUsed": [
    "KHR_materials_transmission"
  ],
  "images": [
    {
      "uri": "model_0_color.png"
    },
    {
      "uri": "model_0_metallicRoughness.png"
    },
    {
      "uri": "model_0_transmittance.png"
    }
  ],
  "materials": [
    {
      "doubleSided": true,
      "extensions": {
        "KHR_materials_transmission": {
          "transmissionFactor": 1.0,
          "transmissionTexture": {
            "index": 2
          }
        }
      },
      "name": "y",
      "pbrMetallicRoughness": {
        "baseColorTexture": {
          "index": 0
        },
        "metallicRoughnessTexture": {
          "index": 1
        }
      }
    }
  ],
  "meshes": [
    {
      "name": "y",
      "primitives": [
        {
          "attributes": {
            "NORMAL": 2,
            "POSITION": 0,
            "TEXCOORD_0": 3
          },
          "indices": 1,
          "material": 0,
          "mode": 4
        }
      ]
    }
  ],
  "nodes": [
    {
      "mesh": 0,
      "name": "y"
    }
  ],
  "scene": 0,
  "scenes": [
    {
      "nodes": [
        0
      ]
    }
  ],
  "textures": [
    {
      "source": 0
    },
    {
      "source": 1
    },
    {
      "source": 2
    }
  ]
}
